HIERARCHY
ROOT Hips
{
 OFFSET 0.000000 0.000000 0.000000
 CHANNELS 6 Xposition Yposition Zposition Yrotation Xrotation Zrotation
 JOINT Chest
 {
  OFFSET 0.000000 9.585900 0.002600
  CHANNELS 3 Yrotation Xrotation Zrotation
  JOINT Chest2
  {
   OFFSET 0.000000 9.601200 -0.005300
   CHANNELS 3 Yrotation Xrotation Zrotation
   JOINT Chest3
   {
    OFFSET 0.000000 9.561800 0.000000
    CHANNELS 3 Yrotation Xrotation Zrotation
    JOINT Chest4
    {
     OFFSET 0.000000 9.552100 0.000000
     CHANNELS 3 Yrotation Xrotation Zrotation
     JOINT Neck
     {
      OFFSET 0.000000 14.453000 0.000000
      CHANNELS 3 Yrotation Xrotation Zrotation
      JOINT Head
      {
       OFFSET 0.000000 8.936500 -0.011300
       CHANNELS 3 Yrotation Xrotation Zrotation
       End Site
       {
        OFFSET 0.000000 17.073600 -0.006000
       }
      }
     }
     JOINT RightCollar
     {
      OFFSET -2.921100 9.558500 0.000000
      CHANNELS 3 Yrotation Xrotation Zrotation
      JOINT RightShoulder
      {
       OFFSET -13.519700 0.000000 0.000000
       CHANNELS 3 Yrotation Xrotation Zrotation
       JOINT RightElbow
       {
        OFFSET 0.000000 -29.696600 0.000000
        CHANNELS 3 Yrotation Xrotation Zrotation
        JOINT RightWrist
        {
         OFFSET 0.000000 -24.004700 0.000000
         CHANNELS 3 Yrotation Xrotation Zrotation
         End Site
         {
          OFFSET 0.000000 -17.728500 0.000000
         }
        }
       }
      }
     }
     JOINT LeftCollar
     {
      OFFSET 2.921100 9.558500 0.000000
      CHANNELS 3 Yrotation Xrotation Zrotation
      JOINT LeftShoulder
      {
       OFFSET 13.519700 0.000000 0.000000
       CHANNELS 3 Yrotation Xrotation Zrotation
       JOINT LeftElbow
       {
        OFFSET 0.000000 -29.696600 0.000000
        CHANNELS 3 Yrotation Xrotation Zrotation
        JOINT LeftWrist
        {
         OFFSET 0.000000 -24.004700 0.000000
         CHANNELS 3 Yrotation Xrotation Zrotation
         End Site
         {
          OFFSET 0.000000 -17.728500 0.000000
         }
        }
       }
      }
     }
    }
   }
  }
 }
 JOINT RightHip
 {
  OFFSET -7.771700 -0.012900 -0.001300
  CHANNELS 3 Yrotation Xrotation Zrotation
  JOINT RightKnee
  {
   OFFSET 0.000000 -40.869800 0.001200
   CHANNELS 3 Yrotation Xrotation Zrotation
   JOINT RightAnkle
   {
    OFFSET 0.000000 -39.717900 0.002100
    CHANNELS 3 Yrotation Xrotation Zrotation
    JOINT RightToe
    {
     OFFSET 0.000000 -4.965400 11.033500
     CHANNELS 3 Yrotation Xrotation Zrotation
     End Site
     {
      OFFSET 0.000000 -1.423100 5.872300
     }
    }
   }
  }
 }
 JOINT LeftHip
 {
  OFFSET 7.771700 -0.012900 -0.001300
  CHANNELS 3 Yrotation Xrotation Zrotation
  JOINT LeftKnee
  {
   OFFSET 0.000000 -40.869800 0.001200
   CHANNELS 3 Yrotation Xrotation Zrotation
   JOINT LeftAnkle
   {
    OFFSET 0.000000 -39.717900 0.002100
    CHANNELS 3 Yrotation Xrotation Zrotation
    JOINT LeftToe
    {
     OFFSET 0.000000 -4.965400 11.033500
     CHANNELS 3 Yrotation Xrotation Zrotation
     End Site
     {
      OFFSET 0.000000 -1.423100 5.872300
     }
    }
   }
  }
 }
}
MOTION
Frames: 16
Frame Time: 0.008333
-7.240536 54.348554 25.879123 179.711371 -30.874715 -11.364548 -0.182372 13.128428 6.118140 0.176948 7.656712 2.298116 0.265422 9.535615 2.892051 0.174195 7.641801 2.302017 3.493120 20.144119 -3.835699 4.599784 -4.173407 -4.897228 0.118279 2.129796 -2.285875 -15.164682 -4.635951 3.462479 166.841008 -86.728599 -147.814206 11.690784 -11.077846 -17.154940 -10.135593 2.397913 -3.131190 8.687963 -2.549347 -0.706413 -87.449398 -69.853451 99.300901 10.150380 -12.091523 -16.570803 -17.365154 -33.900840 9.274249 29.669573 83.750202 26.344207 1.226285 -16.383270 -0.206172 -0.669602 1.630866 -0.366400 -17.587763 -46.552435 16.230689 168.763740 79.285542 164.912000 0.210570 -15.590533 -0.276215 -1.006231 -2.963910 -0.464524
-7.241430 54.368277 25.865011 179.808047 -30.859692 -11.466007 -0.225126 13.158492 6.150429 0.158050 7.643277 2.320755 0.256183 9.531552 2.905204 0.166077 7.641250 2.311356 3.471732 20.135649 -3.831168 4.575703 -4.182903 -4.884680 0.129320 2.115769 -2.309590 -15.194830 -4.624027 3.471697 165.733465 -86.797491 -146.695924 11.709876 -10.939562 -16.924058 -10.145367 2.382706 -3.145083 8.644540 -2.584881 -0.722618 -87.437699 -69.923131 99.265863 10.186282 -12.130631 -16.605743 -17.533852 -33.894982 9.316834 29.601388 83.829065 26.278582 1.316130 -16.479082 -0.236007 -0.691296 1.665329 -0.358499 -17.712856 -46.583221 16.315440 168.750244 79.225843 164.900853 0.186464 -15.611572 -0.251670 -1.014210 -2.955668 -0.467521
-7.246176 54.386014 25.849847 179.849834 -30.852129 -11.526748 -0.235738 13.177009 6.180394 0.150523 7.646327 2.329673 0.237843 9.556444 2.921805 0.150603 7.646334 2.329667 3.460377 20.093585 -3.844819 4.551908 -4.194624 -4.871504 0.147957 2.040907 -2.356636 -15.242338 -4.579223 3.488101 165.213320 -86.823026 -146.126734 11.705251 -10.735570 -16.659502 -10.121879 2.326242 -3.169959 8.590504 -2.613397 -0.735800 -87.432905 -70.004632 99.227922 10.215718 -12.155844 -16.636585 -17.629664 -33.902122 9.345185 29.614186 83.904486 26.295661 1.378528 -16.574525 -0.252958 -0.709679 1.703247 -0.351213 -17.796787 -46.611461 16.389406 168.648357 79.158824 164.777767 0.181926 -15.628547 -0.221563 -1.056049 -2.957939 -0.476137
-7.251520 54.401919 25.835839 179.876498 -30.834532 -11.582442 -0.235464 13.187709 6.214480 0.143548 7.642518 2.339150 0.230335 9.571859 2.932005 0.144248 7.651477 2.338491 3.416066 20.085002 -3.818212 4.548572 -4.226323 -4.887779 0.156034 1.990923 -2.377732 -15.262639 -4.569543 3.495145 164.265180 -86.975925 -145.186327 11.699566 -10.621013 -16.350633 -10.138690 2.288894 -3.169429 8.560438 -2.642384 -0.760372 -87.437657 -70.095666 99.191558 10.235657 -12.161330 -16.647756 -17.699555 -33.929983 9.389293 29.558777 83.990005 26.251705 1.395402 -16.645181 -0.256946 -0.678094 1.723371 -0.344301 -17.848298 -46.663192 16.466609 168.548278 79.086075 164.667082 0.162226 -15.622524 -0.183942 -1.085259 -2.979934 -0.478901
-7.256723 54.416916 25.822847 179.909078 -30.807624 -11.643730 -0.250416 13.179823 6.255938 0.140143 7.636743 2.344332 0.226039 9.596059 2.939198 0.136481 7.669338 2.349878 3.388382 20.069819 -3.806979 4.531568 -4.256587 -4.887156 0.167683 1.939014 -2.398722 -15.280589 -4.573908 3.499989 163.693631 -87.175181 -144.624741 11.684411 -10.508208 -15.995373 -10.164398 2.243739 -3.169097 8.536028 -2.673992 -0.786876 -87.427003 -70.193667 99.139301 10.245203 -12.152061 -16.637359 -17.792272 -33.946943 9.429287 29.655712 84.044467 26.357497 1.422827 -16.751693 -0.267374 -0.663873 1.784821 -0.348340 -17.907572 -46.711680 16.545661 168.536888 79.031455 164.655948 0.131512 -15.645678 -0.155138 -1.094235 -2.971498 -0.476514
-7.260810 54.431068 25.812195 179.937717 -30.767125 -11.707522 -0.265123 13.158951 6.301826 0.139311 7.658312 2.347825 0.216945 9.604891 2.949491 0.131352 7.676242 2.358506 3.370508 20.049103 -3.801973 4.510595 -4.281612 -4.877021 0.178383 1.875471 -2.427570 -15.290111 -4.570264 3.506660 163.811985 -87.380700 -144.748745 11.642451 -10.351614 -15.586381 -10.194456 2.197552 -3.162972 8.504812 -2.701010 -0.811583 -87.399559 -70.303679 99.081282 10.243722 -12.139392 -16.616208 -17.882283 -33.978321 9.480206 29.793068 84.091632 26.499459 1.469484 -16.838345 -0.281794 -0.702741 1.816436 -0.337175 -17.969206 -46.761373 16.631761 168.619313 78.997113 164.750724 0.094306 -15.701061 -0.143117 -1.073252 -2.927397 -0.462921
-7.267506 54.444091 25.803751 179.977883 -30.710582 -11.756048 -0.287486 13.168392 6.310854 0.128541 7.671698 2.364095 0.211206 9.588278 2.964600 0.128561 7.671680 2.364089 3.354711 20.028833 -3.795754 4.502894 -4.306910 -4.879671 0.194067 1.815318 -2.456375 -15.300103 -4.570114 3.512792 164.585165 -87.623018 -145.527446 11.580098 -10.175850 -15.116158 -10.251529 2.165542 -3.155145 8.493851 -2.736356 -0.838272 -87.364639 -70.412799 99.023876 10.233870 -12.131003 -16.592146 -17.971511 -34.028917 9.518662 29.936911 84.134042 26.644641 1.474122 -16.916140 -0.290650 -0.689297 1.854904 -0.326720 -17.975641 -46.839306 16.696293 168.676372 78.960584 164.827246 -0.029946 -15.769958 -0.095117 -1.009075 -2.869799 -0.439050
-7.265888 54.464093 25.789024 179.929784 -30.726123 -11.803424 -0.225008 13.206095 6.375172 0.122656 7.678433 2.371386 0.204022 9.596698 2.973634 0.122655 7.678452 2.371408 3.341126 20.008976 -3.789468 4.521142 -4.334090 -4.911465 0.217237 1.753276 -2.492410 -15.316911 -4.569453 3.523768 166.219498 -87.900485 -147.153651 11.494219 -9.977811 -14.592079 -10.254351 2.118009 -3.159893 8.356883 -2.755878 -0.840457 -87.240071 -70.517394 98.953817 10.220451 -12.135212 -16.572021 -17.983637 -34.011654 9.593237 30.080306 84.172683 26.784621 1.511661 -16.990426 -0.284542 -0.722888 1.891474 -0.337419 -17.991104 -46.848550 16.825406 168.568440 78.890983 164.678870 -0.003219 -15.731492 -0.017942 -1.102930 -2.923901 -0.484086
-7.265119 54.481311 25.781260 179.925163 -30.690249 -11.860788 -0.214662 13.185948 6.432248 0.111017 7.701665 2.373254 0.195403 9.605645 2.982511 0.115647 7.685596 2.378660 3.348567 19.974041 -3.801414 4.492066 -4.344852 -4.880919 0.227758 1.693600 -2.568720 -15.316532 -4.561618 3.571200 169.284183 -88.202642 -150.195297 11.389623 -9.756692 -14.034325 -10.278431 2.070434 -3.159862 8.316840 -2.770905 -0.851664 -87.181622 -70.611776 98.882031 10.207013 -12.156060 -16.563763 -18.037335 -34.035880 9.677881 30.175642 84.203043 26.878648 1.493148 -17.054532 -0.271761 -0.715662 1.926707 -0.341560 -18.012648 -46.899386 16.942518 168.597686 78.850013 164.699786 -0.040078 -15.758473 0.044334 -1.128775 -2.910846 -0.491029
-7.266055 54.500094 25.772974 179.926850 -30.662656 -11.904529 -0.213908 13.175543 6.470688 0.107285 7.705570 2.376835 0.183285 9.622182 2.988995 0.098722 7.704144 2.389979 3.332493 19.963341 -3.784656 4.487957 -4.375471 -4.886989 0.252417 1.641022 -2.626372 -15.310989 -4.557823 3.600544 175.005327 -88.511656 -155.892783 11.278475 -9.510390 -13.454599 -10.333927 2.036473 -3.140850 8.387497 -2.792943 -0.891683 -87.195525 -70.697574 98.813275 10.197823 -12.188767 -16.574050 -18.081406 -34.059827 9.739605 30.187704 84.245164 26.888566 1.496420 -17.101710 -0.269380 -0.708705 1.946573 -0.337914 -18.019739 -46.937113 17.028726 168.670511 78.823657 164.766686 -0.077998 -15.793470 0.090218 -1.136001 -2.886535 -0.485692
-7.267804 54.520540 25.764397 179.927717 -30.643892 -11.937949 -0.214755 13.191038 6.492740 0.107533 7.692612 2.385989 0.156308 9.649739 2.999688 0.088595 7.711905 2.397345 3.318495 19.952878 -3.768758 4.456718 -4.398245 -4.843156 0.284921 1.590084 -2.691622 -15.329079 -4.565860 3.625735 -173.577327 -88.827823 -167.255087 11.175017 -9.232585 -12.858972 -10.299753 1.984184 -3.156111 8.237558 -2.802364 -0.869797 -87.056542 -70.804371 98.729092 10.195492 -12.225982 -16.606123 -18.114506 -34.074968 9.784769 30.226769 84.280145 26.930272 1.483763 -17.151494 -0.272046 -0.698567 1.963243 -0.328364 -18.026430 -46.963850 17.101817 168.735493 78.801075 164.816182 -0.103567 -15.820690 0.126945 -1.137532 -2.859706 -0.487133
-7.269719 54.541620 25.757363 179.925493 -30.621736 -11.965739 -0.234118 13.230431 6.499450 0.118024 7.672376 2.401581 0.124791 9.670566 3.013685 0.085366 7.709077 2.400968 3.315683 19.934186 -3.766355 4.440634 -4.418085 -4.823030 0.330347 1.540909 -2.764414 -15.342882 -4.569947 3.648804 -152.791413 -89.051931 172.010154 11.080643 -8.914999 -12.255798 -10.283774 1.939537 -3.163076 8.164615 -2.816211 -0.867837 -86.986213 -70.914465 98.659336 10.196887 -12.257565 -16.658699 -18.143475 -34.094499 9.824797 30.283999 84.310203 26.989732 1.478953 -17.194746 -0.276105 -0.683882 1.977458 -0.320379 -18.028889 -46.990999 17.174025 168.827568 78.786738 164.889967 -0.138870 -15.850902 0.177122 -1.138681 -2.834029 -0.491796
-7.272899 54.563438 25.750921 179.920895 -30.601562 -11.983417 -0.238500 13.224824 6.513849 0.069807 7.722361 2.404526 0.133443 9.651898 3.021246 0.072208 7.716958 2.408776 3.313957 19.916897 -3.767767 4.438922 -4.437796 -4.824072 0.386870 1.498631 -2.842093 -15.357590 -4.575655 3.674288 -124.704484 -89.086804 143.973890 10.988892 -8.556025 -11.650387 -10.261018 1.896226 -3.175657 8.118121 -2.828512 -0.864109 -86.960976 -71.026297 98.602651 10.196603 -12.276004 -16.731654 -18.165075 -34.115503 9.852007 30.348614 84.338709 27.055150 1.482665 -17.231519 -0.280873 -0.688822 1.987326 -0.313730 -18.020075 -47.015542 17.234141 168.943932 78.779948 164.983860 -0.168976 -15.878926 0.220424 -1.144753 -2.810533 -0.483683
-7.280726 54.584806 25.745248 179.952839 -30.571805 -11.991524 -0.297121 13.233933 6.490731 0.088406 7.701544 2.413745 0.091104 9.677940 3.035461 0.089613 7.706928 2.400836 3.286769 19.916313 -3.749625 4.450775 -4.453708 -4.840616 0.417059 1.480414 -2.881751 -15.353312 -4.570696 3.675245 -101.865883 -88.891947 121.169079 10.906946 -8.161154 -11.051155 -10.293341 1.897470 -3.148252 8.102525 -2.857033 -0.881934 -86.949358 -71.137556 98.552630 10.200433 -12.283406 -16.829208 -18.206066 -34.143861 9.848010 30.349945 84.366047 27.056200 1.460834 -17.265864 -0.286673 -0.642024 1.992516 -0.297639 -18.017224 -47.049421 17.257474 169.075192 78.777711 165.090321 -0.233667 -15.928272 0.259979 -1.116096 -2.763465 -0.461390
-7.283510 54.610119 25.736532 179.946230 -30.580134 -12.011787 -0.307792 13.268891 6.501217 0.081611 7.704974 2.424853 0.074723 9.677533 3.041830 0.061078 7.719772 2.416688 3.293006 19.898587 -3.766348 4.489608 -4.465794 -4.882164 0.491470 1.450733 -2.948973 -15.341807 -4.554901 3.690212 -88.537025 -88.593843 107.875962 10.836693 -7.749635 -10.461050 -10.249501 1.872377 -3.164231 8.063688 -2.879179 -0.871767 -86.944506 -71.239977 98.501041 10.224393 -12.288371 -16.963046 -18.238187 -34.132131 9.854426 30.164224 84.408363 26.882280 1.535133 -17.302913 -0.306875 -0.669155 1.999087 -0.305457 -18.016899 -47.046083 17.310869 169.153518 78.769834 165.135592 -0.212683 -15.909050 0.306675 -1.159233 -2.777530 -0.489441
-7.286508 54.633617 25.731862 179.941831 -30.564211 -12.032628 -0.316760 13.267348 6.517154 0.032227 7.732925 2.429807 0.096609 9.660870 3.045331 0.035636 7.729310 2.430140 3.318078 19.880919 -3.796505 4.456462 -4.470698 -4.855918 0.554065 1.451930 -3.080907 -15.334551 -4.530925 3.780137 -81.256896 -88.250204 100.644329 10.766339 -7.352211 -9.868584 -10.190841 1.843473 -3.195063 8.009553 -2.891894 -0.835104 -86.935388 -71.329335 98.440698 10.273993 -12.297493 -17.153212 -18.278066 -34.135952 9.878789 30.247905 84.416359 26.960436 1.557209 -17.343319 -0.314244 -0.691007 2.023279 -0.310107 -18.029829 -47.065009 17.374667 169.230336 78.761520 165.180146 -0.213852 -15.917589 0.349827 -1.189822 -2.770570 -0.494069
